<?xml version="1.0" encoding="UTF-8" standalone="no"?>
<!-- Created with Inkscape (http://www.inkscape.org/) -->

<svg
   xmlns:dc="http://purl.org/dc/elements/1.1/"
   xmlns:cc="http://creativecommons.org/ns#"
   xmlns:rdf="http://www.w3.org/1999/02/22-rdf-syntax-ns#"
   xmlns:svg="http://www.w3.org/2000/svg"
   xmlns="http://www.w3.org/2000/svg"
   xmlns:xlink="http://www.w3.org/1999/xlink"
   xmlns:sodipodi="http://sodipodi.sourceforge.net/DTD/sodipodi-0.dtd"
   xmlns:inkscape="http://www.inkscape.org/namespaces/inkscape"
   width="32"
   height="32"
   viewBox="0 0 32 32.000001"
   id="svg2"
   version="1.1"
   inkscape:version="0.91 r13725"
   sodipodi:docname="favicon-inkscape.svg">
  <defs
     id="defs4">
    <linearGradient
       inkscape:collect="always"
       id="linearGradient5751">
      <stop
         style="stop-color:#cccccc;stop-opacity:1;"
         offset="0"
         id="stop5753" />
      <stop
         style="stop-color:#cccccc;stop-opacity:0;"
         offset="1"
         id="stop5755" />
    </linearGradient>
    <linearGradient
       inkscape:collect="always"
       id="linearGradient5680">
      <stop
         style="stop-color:#eb88ff;stop-opacity:1"
         offset="0"
         id="stop5682" />
      <stop
         style="stop-color:#bb7af4;stop-opacity:1"
         offset="1"
         id="stop5684" />
    </linearGradient>
    <linearGradient
       inkscape:collect="always"
       xlink:href="#linearGradient5680"
       id="linearGradient5688"
       x1="-20.240932"
       y1="16.355263"
       x2="-0.79549599"
       y2="16.355263"
       gradientUnits="userSpaceOnUse"
       gradientTransform="matrix(1.6456303,0,0,1.2658695,1.309092,-4.703628)" />
    <radialGradient
       inkscape:collect="always"
       xlink:href="#linearGradient5751"
       id="radialGradient5757"
       cx="16.065836"
       cy="19.928502"
       fx="16.065836"
       fy="19.928502"
       r="13.787946"
       gradientTransform="matrix(1,0,0,0.74344522,0,5.1127526)"
       gradientUnits="userSpaceOnUse" />
    <radialGradient
       inkscape:collect="always"
       xlink:href="#linearGradient5751"
       id="radialGradient5781"
       gradientUnits="userSpaceOnUse"
       gradientTransform="matrix(1,0,0,0.74344522,0,5.1127526)"
       cx="16.065836"
       cy="19.928502"
       fx="16.065836"
       fy="19.928502"
       r="13.787946" />
    <radialGradient
       inkscape:collect="always"
       xlink:href="#linearGradient5751"
       id="radialGradient5783"
       gradientUnits="userSpaceOnUse"
       gradientTransform="matrix(1,0,0,0.74344522,0,5.1127526)"
       cx="16.065836"
       cy="19.928502"
       fx="16.065836"
       fy="19.928502"
       r="13.787946" />
    <radialGradient
       inkscape:collect="always"
       xlink:href="#linearGradient5751"
       id="radialGradient5785"
       gradientUnits="userSpaceOnUse"
       gradientTransform="matrix(1,0,0,0.74344522,0,5.1127526)"
       cx="16.065836"
       cy="19.928502"
       fx="16.065836"
       fy="19.928502"
       r="13.787946" />
    <radialGradient
       inkscape:collect="always"
       xlink:href="#linearGradient5751"
       id="radialGradient5787"
       gradientUnits="userSpaceOnUse"
       gradientTransform="matrix(1,0,0,0.74344522,0,5.1127526)"
       cx="16.065836"
       cy="19.928502"
       fx="16.065836"
       fy="19.928502"
       r="13.787946" />
    <radialGradient
       inkscape:collect="always"
       xlink:href="#linearGradient5751"
       id="radialGradient5789"
       gradientUnits="userSpaceOnUse"
       gradientTransform="matrix(1,0,0,0.74344522,0,5.1127526)"
       cx="16.065836"
       cy="19.928502"
       fx="16.065836"
       fy="19.928502"
       r="13.787946" />
    <radialGradient
       inkscape:collect="always"
       xlink:href="#linearGradient5751"
       id="radialGradient5791"
       gradientUnits="userSpaceOnUse"
       gradientTransform="matrix(1,0,0,0.74344522,0,5.1127526)"
       cx="16.065836"
       cy="19.928502"
       fx="16.065836"
       fy="19.928502"
       r="13.787946" />
    <radialGradient
       inkscape:collect="always"
       xlink:href="#linearGradient5751"
       id="radialGradient5793"
       gradientUnits="userSpaceOnUse"
       gradientTransform="matrix(1,0,0,0.74344522,0,5.1127526)"
       cx="16.065836"
       cy="19.928502"
       fx="16.065836"
       fy="19.928502"
       r="13.787946" />
  </defs>
  <sodipodi:namedview
     id="base"
     pagecolor="#ffffff"
     bordercolor="#666666"
     borderopacity="1.0"
     inkscape:pageopacity="0.0"
     inkscape:pageshadow="2"
     inkscape:zoom="22.627417"
     inkscape:cx="11.70157"
     inkscape:cy="14.391406"
     inkscape:document-units="px"
     inkscape:current-layer="svg2"
     showgrid="false"
     units="px"
     inkscape:window-width="1920"
     inkscape:window-height="1017"
     inkscape:window-x="-8"
     inkscape:window-y="-8"
     inkscape:window-maximized="1" />
  <metadata
     id="metadata7">
    <rdf:RDF>
      <cc:Work
         rdf:about="">
        <dc:format>image/svg+xml</dc:format>
        <dc:type
           rdf:resource="http://purl.org/dc/dcmitype/StillImage" />
        <dc:title></dc:title>
      </cc:Work>
    </rdf:RDF>
  </metadata>
  <rect
     style="fill:url(#linearGradient5688);fill-opacity:1"
     id="rect4194"
     width="32"
     height="32"
     x="-32"
     y="3.6602665e-016"
     transform="matrix(0,-1,1,0,0,0)" />
  <g
     inkscape:label="Layer 1"
     inkscape:groupmode="layer"
     id="layer1"
     transform="translate(0,-1020.3622)" />
  <g
     id="g5692"
     transform="translate(0,40)">
    <path
       sodipodi:nodetypes="cccccccc"
       inkscape:connector-curvature="0"
       id="path4136-1"
       d="M 18.427552,28.999999 C 16.143968,24.907596 18.952946,21.135171 19.533374,18.56105 20.13195,15.942409 19.092636,12.296555 16.299287,9.8793546 l -0.332542,-0.201435 -0.266033,0.201433 c -2.793349,2.4172004 -3.829288,6.0630544 -3.297222,8.6816954 1.143699,4.829955 4.200505,6.293987 1.168956,10.438949 2.623247,0.229343 4.855106,2e-6 4.855106,2e-6 z"
       style="fill:#fffac4;fill-opacity:1;fill-rule:evenodd" />
    <path
       sodipodi:nodetypes="cccccccccccccccc"
       inkscape:connector-curvature="0"
       id="path4136-19-0"
       d="m 18.463724,28.955216 c 0,0 0.700025,-0.422396 2.429242,-0.556693 1.263657,-0.06715 3.300593,-0.568715 4.431235,-1.105884 2.926367,-1.410037 3.573377,-2.51241 4.238461,-3.922448 -1.99525,-0.940019 -3.76278,-1.113891 -5.092946,-0.979615 1.330166,-1.544303 1.799097,-4.443551 1.533064,-5.652152 -1.795726,0 -3.852321,0.141083 -6.047096,2.021134 -1.518143,1.385104 -3.682285,4.305098 -3.794931,7.35169 -0.143466,-3.051066 -2.470509,-5.697556 -3.934732,-7.037934 -2.128265,-1.880051 -4.5185706,-2.492728 -6.3142956,-2.492728 -0.199525,1.275746 0.2344657,4.202551 1.5646317,5.746854 -1.330166,-0.134276 -2.9049196,0.165864 -4.9666766,1.105883 0.665082,1.410038 1.3436609,2.543979 4.2700274,3.954016 1.130641,0.537169 3.3603581,1.038735 4.5575061,1.105884 1.729216,0.134297 2.271404,0.461991 2.271404,0.461991 2.107078,-0.270266 3.029899,-0.256905 4.855106,2e-6 z"
       style="fill:#ffeead;fill-opacity:1;fill-rule:evenodd" />
    <path
       sodipodi:nodetypes="cccccccccccc"
       inkscape:connector-curvature="0"
       id="path4136-19"
       d="m 18.426088,29.001208 c 0,0 0.698446,-0.301983 2.427663,-0.43628 1.263657,-0.06715 3.413787,-0.514827 4.544429,-1.051996 2.926367,-1.410037 3.790518,-2.820423 4.455602,-4.230461 -1.99525,-0.940019 -3.96251,-1.004165 -5.286979,-0.822084 -4.926133,0.873446 -7.851959,3.879776 -8.402525,5.688988 -0.541158,-1.784052 -3.514437,-4.735373 -8.4877087,-5.641357 -1.3060628,-0.285608 -3.336923,-0.09861 -5.39868,0.841415 0.665082,1.410038 1.4176276,2.59721 4.3439946,4.007247 1.130641,0.537169 3.3249607,1.118775 4.5221081,1.185924 1.729216,0.134297 2.432514,0.453078 2.432514,0.453078 2.194321,0.20125 2.845835,0.212598 4.849582,0.0055 z"
       style="fill:#ffcca9;fill-opacity:1;fill-rule:evenodd" />
  </g>
  <path
     style="fill:#333333;fill-opacity:1;fill-rule:evenodd"
     d="m 16.099763,-29.397582 c 2.726841,1.812904 3.790973,6.244438 3.192398,8.460199 -0.133016,0.402871 -0.266033,0.671445 -0.266033,0.671445 0,0 0.199524,-0.201425 0.598575,-0.537147 1.463183,-1.34289 4.323042,-2.21577 6.185274,-2.21577 0.133017,1.141459 -0.399052,3.894371 -1.330166,5.102963 -0.133019,0.201446 -0.332543,0.470019 -0.332543,0.470019 0.266034,-0.06715 0.332543,-0.06715 0.665084,-0.06715 1.263658,-0.06715 3.458431,0.402871 4.32304,1.007168 -0.266033,0.738593 -1.463183,2.417205 -3.923991,3.558669 -1.529689,0.671445 -3.059382,1.007167 -4.323039,1.141443 C 18.826604,-11.537148 18.427553,-11 18.427553,-11 c 0,0 0.731592,-0.201425 2.460809,-0.335722 1.263657,-0.06715 3.45843,-0.537148 4.589072,-1.074317 2.926367,-1.410037 3.857482,-2.954352 4.522566,-4.36439 -1.99525,-0.940019 -3.857482,-1.208592 -5.187648,-1.074316 1.330166,-1.544303 1.862232,-4.632954 1.596199,-5.841556 -1.795726,0 -4.522565,0.402867 -6.71734,2.282919 0.598576,-2.618641 -0.598574,-6.580167 -3.391923,-8.997368 l -0.332542,-0.201436 -0.266033,0.201434 c -2.793349,2.417201 -3.92399,6.378727 -3.391924,8.997368 -2.128265,-1.880052 -4.9216148,-2.282919 -6.7173401,-2.282919 -0.1995243,1.275747 0.2660332,4.297253 1.5961989,5.841556 C 5.8574821,-17.983023 4.0617568,-17.71445 2,-16.774431 c 0.6650823,1.410038 1.5961993,2.954353 4.5225659,4.36439 1.1306414,0.537169 3.391925,1.007168 4.5890731,1.074317 1.729216,0.134297 2.460808,0.335722 2.460808,0.335722 0,0 -0.39905,-0.537148 -2.460808,-0.805743 -1.2636581,-0.201422 -2.7933499,-0.469995 -4.32304,-1.141439 -2.460807,-1.074316 -3.6579571,-2.752928 -3.9239903,-3.55867 0.8646082,-0.604297 3.0593821,-1.007168 4.3230391,-1.007168 0.3325419,0 0.4655595,0 0.6650838,0.06715 0,0 -0.1995243,-0.268573 -0.3325419,-0.470019 -0.9311171,-1.208592 -1.4631834,-4.028649 -1.3966745,-5.170107 1.8622341,0 4.7220908,0.940024 6.1852738,2.282914 0.399051,0.335722 0.686963,0.625535 0.686963,0.625535 0,0 -0.100365,-0.302696 -0.227526,-0.824229 -0.418475,-2.153388 0.338662,-6.582899 3.065504,-8.395802 l 0.133016,-0.06714 z"
     id="path4136"
     inkscape:connector-curvature="0"
     sodipodi:nodetypes="cccccccccccccccccccccccccccccccsccccccccc" />
  <path
     sodipodi:nodetypes="cccccccccccccccccccccccccccccccsccccccccc"
     inkscape:connector-curvature="0"
     id="path5710"
     d="m 16.099763,50.602418 c 2.726841,1.812904 3.790973,6.244438 3.192398,8.460199 -0.133016,0.402871 -0.266033,0.671445 -0.266033,0.671445 0,0 0.199524,-0.201425 0.598575,-0.537147 1.463183,-1.34289 4.323042,-2.21577 6.185274,-2.21577 0.133017,1.141459 -0.399052,3.894371 -1.330166,5.102963 -0.133019,0.201446 -0.332543,0.470019 -0.332543,0.470019 0.266034,-0.06715 0.332543,-0.06715 0.665084,-0.06715 1.263658,-0.06715 3.458431,0.402871 4.32304,1.007168 -0.266033,0.738593 -1.463183,2.417205 -3.923991,3.558669 -1.529689,0.671445 -3.059382,1.007167 -4.323039,1.141443 C 18.826604,68.462852 18.427553,69 18.427553,69 c 0,0 0.731592,-0.201425 2.460809,-0.335722 1.263657,-0.06715 3.45843,-0.537148 4.589072,-1.074317 2.926367,-1.410037 3.857482,-2.954352 4.522566,-4.36439 -1.99525,-0.940019 -3.857482,-1.208592 -5.187648,-1.074316 1.330166,-1.544303 1.862232,-4.632954 1.596199,-5.841556 -1.795726,0 -4.522565,0.402867 -6.71734,2.282919 0.598576,-2.618641 -0.598574,-6.580167 -3.391923,-8.997368 l -0.332542,-0.201436 -0.266033,0.201434 c -2.793349,2.417201 -3.92399,6.378727 -3.391924,8.997368 C 10.180524,56.712564 7.3871742,56.309697 5.5914489,56.309697 5.3919246,57.585444 5.8574821,60.60695 7.1876478,62.151253 5.8574821,62.016977 4.0617568,62.28555 2,63.225569 c 0.6650823,1.410038 1.5961993,2.954353 4.5225659,4.36439 1.1306414,0.537169 3.391925,1.007168 4.5890731,1.074317 1.729216,0.134297 2.460808,0.335722 2.460808,0.335722 0,0 -0.39905,-0.537148 -2.460808,-0.805743 C 9.8479809,67.992833 8.3182891,67.72426 6.788599,67.052816 4.327792,65.9785 3.1306419,64.299888 2.8646087,63.494146 c 0.8646082,-0.604297 3.0593821,-1.007168 4.3230391,-1.007168 0.3325419,0 0.4655595,0 0.6650838,0.06715 0,0 -0.1995243,-0.268573 -0.3325419,-0.470019 -0.9311171,-1.208592 -1.4631834,-4.028649 -1.3966745,-5.170107 1.8622341,0 4.7220908,0.940024 6.1852738,2.282914 0.399051,0.335722 0.686963,0.625535 0.686963,0.625535 0,0 -0.100365,-0.302696 -0.227526,-0.824229 -0.418475,-2.153388 0.338662,-6.582899 3.065504,-8.395802 l 0.133016,-0.06714 z"
     style="fill:#333333;fill-opacity:1;fill-rule:evenodd" />
  <g
     id="g5746"
     style="fill:url(#radialGradient5757);fill-opacity:1"
     transform="translate(0,-2)">
    <path
       style="fill:url(#radialGradient5789);fill-opacity:1;fill-rule:evenodd"
       d="M 18.427552,28.999999 C 16.143968,24.907596 18.952946,21.135171 19.533374,18.56105 20.13195,15.942409 19.092636,12.296555 16.299287,9.8793546 l -0.332542,-0.201435 -0.266033,0.201433 c -2.793349,2.4172004 -3.829288,6.0630544 -3.297222,8.6816954 1.143699,4.829955 4.200505,6.293987 1.168956,10.438949 2.623247,0.229343 4.855106,2e-6 4.855106,2e-6 z"
       id="path5727"
       inkscape:connector-curvature="0"
       sodipodi:nodetypes="cccccccc" />
    <path
       style="fill:url(#radialGradient5791);fill-opacity:1;fill-rule:evenodd"
       d="m 18.463724,28.955216 c 0,0 0.700025,-0.422396 2.429242,-0.556693 1.263657,-0.06715 3.300593,-0.568715 4.431235,-1.105884 2.926367,-1.410037 3.573377,-2.51241 4.238461,-3.922448 -1.99525,-0.940019 -3.76278,-1.113891 -5.092946,-0.979615 1.330166,-1.544303 1.799097,-4.443551 1.533064,-5.652152 -1.795726,0 -3.852321,0.141083 -6.047096,2.021134 -1.518143,1.385104 -3.682285,4.305098 -3.794931,7.35169 -0.143466,-3.051066 -2.470509,-5.697556 -3.934732,-7.037934 -2.128265,-1.880051 -4.5185706,-2.492728 -6.3142956,-2.492728 -0.199525,1.275746 0.2344657,4.202551 1.5646317,5.746854 -1.330166,-0.134276 -2.9049196,0.165864 -4.9666766,1.105883 0.665082,1.410038 1.3436609,2.543979 4.2700274,3.954016 1.130641,0.537169 3.3603581,1.038735 4.5575061,1.105884 1.729216,0.134297 2.271404,0.461991 2.271404,0.461991 2.107078,-0.270266 3.029899,-0.256905 4.855106,2e-6 z"
       id="path5729"
       inkscape:connector-curvature="0"
       sodipodi:nodetypes="cccccccccccccccc" />
    <path
       style="fill:url(#radialGradient5793);fill-opacity:1;fill-rule:evenodd"
       d="m 18.426088,29.001208 c 0,0 0.698446,-0.301983 2.427663,-0.43628 1.263657,-0.06715 3.413787,-0.514827 4.544429,-1.051996 2.926367,-1.410037 3.790518,-2.820423 4.455602,-4.230461 -1.99525,-0.940019 -3.96251,-1.004165 -5.286979,-0.822084 -4.926133,0.873446 -7.851959,3.879776 -8.402525,5.688988 -0.541158,-1.784052 -3.514437,-4.735373 -8.4877087,-5.641357 -1.3060628,-0.285608 -3.336923,-0.09861 -5.39868,0.841415 0.665082,1.410038 1.4176276,2.59721 4.3439946,4.007247 1.130641,0.537169 3.3249607,1.118775 4.5221081,1.185924 1.729216,0.134297 2.432514,0.453078 2.432514,0.453078 2.150127,1.571269 2.845835,1.582617 4.849582,0.0055 z"
       id="path5731"
       inkscape:connector-curvature="0"
       sodipodi:nodetypes="ccccccccccccc" />
  </g>
  <g
     style="fill:url(#radialGradient5787);fill-opacity:1"
     id="g5759"
     transform="translate(0,-2)">
    <path
       sodipodi:nodetypes="cccccccc"
       inkscape:connector-curvature="0"
       id="path5761"
       d="M 18.427552,28.999999 C 16.143968,24.907596 18.952946,21.135171 19.533374,18.56105 20.13195,15.942409 19.092636,12.296555 16.299287,9.8793546 l -0.332542,-0.201435 -0.266033,0.201433 c -2.793349,2.4172004 -3.829288,6.0630544 -3.297222,8.6816954 1.143699,4.829955 4.200505,6.293987 1.168956,10.438949 2.623247,0.229343 4.855106,2e-6 4.855106,2e-6 z"
       style="fill:url(#radialGradient5781);fill-opacity:1;fill-rule:evenodd" />
    <path
       sodipodi:nodetypes="cccccccccccccccc"
       inkscape:connector-curvature="0"
       id="path5763"
       d="m 18.463724,28.955216 c 0,0 0.700025,-0.422396 2.429242,-0.556693 1.263657,-0.06715 3.300593,-0.568715 4.431235,-1.105884 2.926367,-1.410037 3.573377,-2.51241 4.238461,-3.922448 -1.99525,-0.940019 -3.76278,-1.113891 -5.092946,-0.979615 1.330166,-1.544303 1.799097,-4.443551 1.533064,-5.652152 -1.795726,0 -3.852321,0.141083 -6.047096,2.021134 -1.518143,1.385104 -3.682285,4.305098 -3.794931,7.35169 -0.143466,-3.051066 -2.470509,-5.697556 -3.934732,-7.037934 -2.128265,-1.880051 -4.5185706,-2.492728 -6.3142956,-2.492728 -0.199525,1.275746 0.2344657,4.202551 1.5646317,5.746854 -1.330166,-0.134276 -2.9049196,0.165864 -4.9666766,1.105883 0.665082,1.410038 1.3436609,2.543979 4.2700274,3.954016 1.130641,0.537169 3.3603581,1.038735 4.5575061,1.105884 1.729216,0.134297 2.271404,0.461991 2.271404,0.461991 2.107078,-0.270266 3.029899,-0.256905 4.855106,2e-6 z"
       style="fill:url(#radialGradient5783);fill-opacity:1;fill-rule:evenodd" />
    <path
       sodipodi:nodetypes="ccccccccccccc"
       inkscape:connector-curvature="0"
       id="path5765"
       d="m 18.426088,29.001208 c 0,0 0.698446,-0.301983 2.427663,-0.43628 1.263657,-0.06715 3.413787,-0.514827 4.544429,-1.051996 2.926367,-1.410037 3.790518,-2.820423 4.455602,-4.230461 -1.99525,-0.940019 -3.96251,-1.004165 -5.286979,-0.822084 -4.926133,0.873446 -7.851959,3.879776 -8.402525,5.688988 -0.541158,-1.784052 -3.514437,-4.735373 -8.4877087,-5.641357 -1.3060628,-0.285608 -3.336923,-0.09861 -5.39868,0.841415 0.665082,1.410038 1.4176276,2.59721 4.3439946,4.007247 1.130641,0.537169 3.3249607,1.118775 4.5221081,1.185924 1.729216,0.134297 2.432514,0.453078 2.432514,0.453078 2.150127,1.571269 2.845835,1.582617 4.849582,0.0055 z"
       style="fill:url(#radialGradient5785);fill-opacity:1;fill-rule:evenodd" />
  </g>
  <path
     style="fill:#333333;fill-opacity:1;fill-rule:evenodd"
     d="m 16.099763,8.602418 c 2.726841,1.812904 3.790973,6.244438 3.192398,8.460199 -0.133016,0.402871 -0.266033,0.671445 -0.266033,0.671445 0,0 0.199524,-0.201425 0.598575,-0.537147 1.463183,-1.34289 4.323042,-2.21577 6.185274,-2.21577 0.133017,1.141459 -0.399052,3.894371 -1.330166,5.102963 -0.133019,0.201446 -0.332543,0.470019 -0.332543,0.470019 0.266034,-0.06715 0.332543,-0.06715 0.665084,-0.06715 1.263658,-0.06715 3.458431,0.402871 4.32304,1.007168 -0.266033,0.738593 -1.463183,2.417205 -3.923991,3.558669 -1.529689,0.671445 -3.059382,1.007167 -4.323039,1.141443 C 18.826604,26.462852 18.427553,27 18.427553,27 c 0,0 0.731592,-0.201425 2.460809,-0.335722 1.263657,-0.06715 3.45843,-0.537148 4.589072,-1.074317 2.926367,-1.410037 3.857482,-2.954352 4.522566,-4.36439 -1.99525,-0.940019 -3.857482,-1.208592 -5.187648,-1.074316 1.330166,-1.544303 1.862232,-4.632954 1.596199,-5.841556 -1.795726,0 -4.522565,0.402867 -6.71734,2.282919 0.598576,-2.618641 -0.598574,-6.580167 -3.391923,-8.997368 L 15.966746,7.393814 15.700713,7.595248 c -2.793349,2.417201 -3.92399,6.378727 -3.391924,8.997368 C 10.180524,14.712564 7.3871742,14.309697 5.5914489,14.309697 5.3919246,15.585444 5.8574821,18.60695 7.1876478,20.151253 5.8574821,20.016977 4.0617568,20.28555 2,21.225569 c 0.6650823,1.410038 1.5961993,2.954353 4.5225659,4.36439 1.1306414,0.537169 3.391925,1.007168 4.5890731,1.074317 1.729216,0.134297 2.460808,0.335722 2.460808,0.335722 0,0 -0.39905,-0.537148 -2.460808,-0.805743 C 9.8479809,25.992833 8.3182891,25.72426 6.788599,25.052816 4.327792,23.9785 3.1306419,22.299888 2.8646087,21.494146 c 0.8646082,-0.604297 3.0593821,-1.007168 4.3230391,-1.007168 0.3325419,0 0.4655595,0 0.6650838,0.06715 0,0 -0.1995243,-0.268573 -0.3325419,-0.470019 -0.9311171,-1.208592 -1.4631834,-4.028649 -1.3966745,-5.170107 1.8622341,0 4.7220908,0.940024 6.1852738,2.282914 0.399051,0.335722 0.686963,0.625535 0.686963,0.625535 0,0 -0.100365,-0.302696 -0.227526,-0.824229 -0.418475,-2.153388 0.338662,-6.582899 3.065504,-8.395802 l 0.133016,-0.06714 z"
     id="path5733"
     inkscape:connector-curvature="0"
     sodipodi:nodetypes="cccccccccccccccccccccccccccccccsccccccccc" />
  <circle
     style="fill:#333333;fill-opacity:1;stroke-width:0.1;stroke-linejoin:round;stroke-miterlimit:4;stroke-dasharray:none"
     id="path5697"
     cx="16.044193"
     cy="28.15"
     r="0.85000002" />
</svg>
