<?xml version="1.0" encoding="utf-8"?>
<!DOCTYPE svg PUBLIC "-//W3C//DTD SVG 1.1//EN" "http://www.w3.org/Graphics/SVG/1.1/DTD/svg11.dtd">
<svg xmlns="http://www.w3.org/2000/svg" version="1.1" viewBox="0 0 40 40" style="overflow:visible">
  <defs>
    <filter id="logoShadow">
      <feGaussianBlur stdDeviation="2"/>
      <feOffset dx="1" dy="1"/>
      <feComponentTransfer result="shadow">
        <feFuncR type="linear" slope="0"/>
        <feFuncG type="linear" slope="0"/>
        <feFuncB type="linear" slope="0"/>
        <feFuncA type="linear" slope="0.4"/>
      </feComponentTransfer>
      <feComposite in="SourceGraphic" in2="shadow" operator="over"/>
    </filter>
  </defs>
  <path filter="url(#logoShadow)" fill="#ffffff" d="m20,4.1c-9,0 -16.3,7.3 -16.3,16.3 0,7.2 4.7,13.3 11.1,15.5 0.8,0.1 1.1,-0.4 1.1,-0.8 0,-0.4 -0,-1.4 -0,-2.8 -4.5,1 -5.5,-2.2 -5.5,-2.2 -0.7,-1.9 -1.8,-2.4 -1.8,-2.4 -1.5,-1 0.1,-1 0.1,-1 1.6,0.1 2.5,1.7 2.5,1.7 1.5,2.5 3.8,1.8 4.7,1.4 0.1,-1.1 0.6,-1.8 1,-2.2 -3.6,-0.4 -7.4,-1.8 -7.4,-8.1 0,-1.8 0.6,-3.2 1.7,-4.4 -0.2,-0.4 -0.7,-2.1 0.2,-4.3 0,0 1.4,-0.4 4.5,1.7 1.3,-0.4 2.7,-0.5 4.1,-0.5 1.4,0 2.8,0.2 4.1,0.5 3.1,-2.1 4.5,-1.7 4.5,-1.7 0.9,2.2 0.3,3.9 0.2,4.3 1,1.1 1.7,2.6 1.7,4.4 0,6.3 -3.8,7.6 -7.4,8 0.6,0.5 1.1,1.5 1.1,3 0,2.2 -0,3.9 -0,4.5 0,0.4 0.3,0.9 1.1,0.8 6.5,-2.2 11.1,-8.3 11.1,-15.5C36.3,11.4 29,4.1 20,4.1Z"/>
</svg>
