<?xml version="1.0" encoding="utf-8"?>
<!DOCTYPE svg PUBLIC "-//W3C//DTD SVG 1.1//EN" "http://www.w3.org/Graphics/SVG/1.1/DTD/svg11.dtd">
<svg xmlns="http://www.w3.org/2000/svg" version="1.1" viewBox="0 0 40 40">
  <defs>
    <filter id="logoShadow">
      <feGaussianBlur stdDeviation="2"/>
      <feOffset dx="1" dy="1"/>
      <feComponentTransfer result="shadow">
        <feFuncR type="linear" slope="0"/>
        <feFuncG type="linear" slope="0"/>
        <feFuncB type="linear" slope="0"/>
        <feFuncA type="linear" slope="0.4"/>
      </feComponentTransfer>
      <feComposite in="SourceGraphic" in2="shadow" operator="over"/>
    </filter>
  </defs>
  <path filter="url(#logoShadow)" fill="#ffffff" d="m14,33c12.1,0 18.7,-9.6 18.7,-17.9 0,-0.3 0,-0.5 -0,-0.8 1.3,-0.9 2.4,-2 3.3,-3.3 -1.2,0.5 -2.4,0.8 -3.8,1 1.4,-0.8 2.4,-2 2.9,-3.5 -1.3,0.7 -2.7,1.2 -4.2,1.5 -1.2,-1.2 -2.9,-2 -4.8,-2 -3.6,0 -6.6,2.8 -6.6,6.3 0,0.5 0.1,1 0.2,1.4C14.3,16.5 9.5,13 6.2,9.2c-0.6,0.9 -0.9,2 -0.9,3.2 0,2.2 1.2,4.1 2.9,5.2 -1.1,-0 -2.1,-0.3 -3,-0.8 0,0 0,0.1 0,0.1 0,3.1 2.3,5.6 5.3,6.2 -0.5,0.1 -1.1,0.2 -1.7,0.2 -0.4,0 -0.8,-0 -1.2,-0.1 0.8,2.5 3.3,4.3 6.1,4.4 -2.2,1.7 -5.1,2.7 -8.2,2.7 -0.5,0 -1.1,-0 -1.6,-0.1C6.9,31.9 10.4,33 14.1,33"/>
</svg>
